<?xml version="1.0" standalone="no"?>
<!DOCTYPE svg PUBLIC "-//W3C//DTD SVG 20010904//EN"
 "http://www.w3.org/TR/2001/REC-SVG-20010904/DTD/svg10.dtd">
<svg version="1.0" xmlns="http://www.w3.org/2000/svg"
 width="500.000000pt" height="500.000000pt" viewBox="0 0 500.000000 500.000000"
 preserveAspectRatio="xMidYMid meet">

<g transform="translate(0.000000,500.000000) scale(0.100000,-0.100000)"
fill="#000000" stroke="none">
<path d="M0 2500 l0 -2500 2500 0 2500 0 0 2500 0 2500 -2500 0 -2500 0 0
-2500z m2410 955 l0 -85 90 0 90 0 0 85 0 85 100 0 100 0 0 -85 0 -85 90 0 90
0 0 -100 0 -100 -90 0 -90 0 0 -90 0 -90 90 0 90 0 0 -100 0 -100 -90 0 -90 0
0 -90 0 -90 -100 0 -99 0 -3 88 -3 87 -87 3 -88 3 0 -91 0 -90 -105 0 -105 0
0 90 0 90 -80 0 -80 0 0 100 0 100 80 0 80 0 0 90 0 90 -85 0 -85 0 0 100 0
100 85 0 85 0 0 85 0 85 105 0 105 0 0 -85z m-663 -1193 c80 -41 123 -131 123
-256 0 -134 -44 -221 -134 -269 -31 -16 -59 -21 -116 -21 -170 0 -258 111
-248 313 7 135 54 209 157 248 52 19 166 11 218 -15z m713 -257 l0 -285 -75 0
-75 0 0 225 0 225 -50 0 -50 0 0 60 0 60 125 0 125 0 0 -285z m497 249 c36
-22 55 -44 78 -89 28 -55 30 -66 29 -164 0 -114 -11 -152 -60 -210 -42 -51
-98 -74 -179 -75 -86 -1 -132 14 -177 58 -56 55 -72 98 -76 208 -6 156 31 237
133 285 43 21 61 23 127 20 64 -3 85 -9 125 -33z m514 25 c51 -16 105 -62 131
-112 29 -56 38 -224 15 -291 -36 -105 -113 -160 -227 -160 -156 -2 -244 84
-257 249 -12 160 51 281 163 315 42 12 131 12 175 -1z m-1311 -314 l0 -45
-110 0 -110 0 0 45 0 45 110 0 110 0 0 -45z m-300 -471 c0 -19 -5 -44 -10 -55
-11 -20 -45 -26 -55 -9 -4 6 5 10 19 10 24 0 26 4 26 39 0 33 -4 40 -22 44
-17 3 -14 5 10 6 30 1 32 -1 32 -35z m140 28 c0 -5 -10 -8 -21 -8 -34 1 -33
-18 2 -31 24 -9 30 -17 27 -35 -2 -19 -9 -23 -37 -23 -19 0 -36 5 -38 11 -2 7
8 9 27 6 36 -5 41 14 6 28 -29 11 -40 26 -32 45 6 16 66 21 66 7z m266 -19 c8
-29 -14 -53 -48 -53 -10 0 -18 -7 -18 -15 0 -8 -4 -15 -10 -15 -5 0 -10 25
-10 55 l0 55 40 0 c35 0 40 -3 46 -27z m162 -2 c2 -13 -1 -28 -7 -34 -7 -7 -7
-16 0 -29 7 -12 6 -18 -1 -18 -6 0 -13 7 -16 15 -4 8 -15 15 -25 15 -10 0 -19
-7 -19 -15 0 -8 -4 -15 -10 -15 -5 0 -10 25 -10 56 l0 55 43 -3 c35 -3 43 -7
45 -27z m174 12 c22 -20 23 -42 2 -71 -29 -42 -104 -18 -104 34 0 49 64 72
102 37z m136 -35 c-3 -49 -5 -53 -30 -56 -16 -2 -28 1 -28 7 0 6 9 11 20 11
17 0 20 7 20 39 0 33 -4 40 -22 44 -16 3 -13 5 10 6 l33 1 -3 -52z m130 45
c-47 -5 -54 -33 -8 -33 17 0 30 -4 30 -10 0 -5 -14 -10 -31 -10 -44 0 -36 -33
11 -41 l35 -6 -42 -2 -43 -1 0 55 0 55 43 -2 42 -1 -37 -4z m198 -4 c4 -8 -3
-9 -24 -5 -31 7 -62 -12 -62 -39 0 -23 40 -46 61 -34 11 5 20 5 24 0 8 -13
-31 -24 -60 -17 -36 9 -49 62 -23 94 13 15 74 16 84 1z m137 4 c-20 -4 -23
-11 -23 -54 0 -27 -4 -49 -10 -49 -5 0 -10 22 -10 49 0 43 -3 50 -22 54 -13 2
2 4 32 4 30 0 45 -2 33 -4z"/>
<path d="M2410 3080 l0 -90 90 0 90 0 0 90 0 90 -90 0 -90 0 0 -90z"/>
<path d="M1573 2168 c-34 -17 -48 -64 -48 -168 0 -108 14 -147 59 -169 37 -17
82 -5 109 30 24 33 35 173 18 236 -20 73 -75 102 -138 71z"/>
<path d="M2755 2156 c-14 -14 -26 -41 -30 -71 -11 -71 -1 -190 19 -220 36 -55
113 -56 146 -2 44 71 34 251 -15 295 -35 30 -88 30 -120 -2z"/>
<path d="M3325 2158 c-46 -41 -58 -214 -19 -289 19 -37 73 -55 111 -37 44 21
63 71 63 163 0 96 -13 149 -43 170 -31 22 -82 19 -112 -7z"/>
<path d="M2200 1495 c0 -22 4 -26 23 -23 14 2 22 10 22 23 0 13 -8 21 -22 23
-19 3 -23 -1 -23 -23z"/>
<path d="M2360 1495 c0 -22 4 -26 23 -23 14 2 22 10 22 23 0 13 -8 21 -22 23
-19 3 -23 -1 -23 -23z"/>
<path d="M2526 1499 c-26 -37 8 -75 52 -58 28 11 30 54 3 69 -28 15 -38 13
-55 -11z"/>
</g>
</svg>
