<?xml version="1.0" standalone="no"?>
<!DOCTYPE svg PUBLIC "-//W3C//DTD SVG 20010904//EN"
 "http://www.w3.org/TR/2001/REC-SVG-20010904/DTD/svg10.dtd">
<svg version="1.0" xmlns="http://www.w3.org/2000/svg"
 width="91.000000pt" height="79.000000pt" viewBox="0 0 91.000000 79.000000"
 preserveAspectRatio="xMidYMid meet">

<g transform="translate(0.000000,79.000000) scale(0.100000,-0.100000)"
fill="#000000" stroke="none">
<path d="M361 757 c-48 -24 -65 -62 -68 -144 -1 -42 -7 -81 -12 -86 -6 -6 -11
-27 -11 -47 0 -29 -5 -39 -26 -50 -33 -18 -47 -44 -54 -100 l-5 -45 -65 -3
c-36 -2 -67 -6 -69 -8 -2 -2 4 -50 14 -106 10 -57 19 -111 19 -120 0 -21 -14
-21 361 -18 154 0 284 5 289 10 20 20 -3 40 -49 40 -43 0 -45 1 -45 30 l0 30
93 0 c59 0 97 4 105 12 14 14 17 355 3 376 -6 10 -45 13 -157 13 l-149 0 0 67
c0 37 -6 81 -13 99 -23 53 -105 79 -161 50z m102 -47 c41 -6 41 -7 13 -15 -35
-10 -96 17 -96 41 0 15 2 15 20 -1 12 -10 40 -22 63 -25z m7 30 c12 -8 9 -10
-12 -10 -15 0 -30 5 -33 10 -8 13 25 13 45 0z m-34 -64 c19 -4 44 -4 54 -1 11
4 20 2 20 -3 0 -16 -65 -23 -96 -12 -37 14 -64 39 -64 58 0 10 8 7 25 -11 14
-14 41 -28 61 -31z m-105 -9 c-8 -8 -11 -7 -11 4 0 20 13 34 18 19 3 -7 -1
-17 -7 -23z m61 -18 c12 -6 46 -11 75 -11 l54 0 -3 -47 -3 -46 -94 -3 c-105
-4 -111 -1 -111 59 0 27 5 38 23 47 29 14 34 14 59 1z m426 -127 c9 -7 12 -50
10 -183 l-3 -174 -92 -3 -93 -3 0 99 c0 116 -5 125 -79 125 -75 1 -81 -9 -81
-125 l0 -99 -92 3 -93 3 -3 169 c-2 116 1 173 9 182 9 11 60 14 258 14 135 0
252 -4 259 -8z m-528 -372 c8 -5 54 -10 103 -10 l87 0 0 -30 c0 -29 -2 -30
-45 -30 -33 0 -47 -5 -55 -19 -7 -15 -20 -19 -55 -19 -50 1 -42 -15 -69 143
-9 53 -20 84 -33 95 -10 8 -18 21 -17 28 1 6 2 23 3 37 0 14 13 38 29 53 l27
27 5 -133 c4 -103 8 -135 20 -142z m323 211 c4 -1 7 -64 7 -141 l0 -140 -60 0
-60 0 0 133 c0 152 4 161 65 153 22 -3 43 -5 48 -5z m-393 -111 c4 -7 13 -47
19 -89 7 -42 15 -84 17 -93 5 -15 -1 -18 -36 -18 -35 0 -41 3 -36 18 3 9 8 38
11 64 7 45 6 47 -20 54 -37 9 -59 -6 -63 -45 -2 -17 -7 -31 -11 -31 -11 0 -33
138 -25 151 9 15 134 5 144 -11z m-45 -117 c-12 -77 -15 -83 -35 -83 -22 0
-24 17 -14 83 6 31 11 37 31 37 22 0 23 -3 18 -37z m468 -80 c-46 -2 -120 -2
-165 0 -46 1 -9 3 82 3 91 0 128 -2 83 -3z"/>
<path d="M350 604 c0 -17 22 -14 28 4 2 7 -3 12 -12 12 -9 0 -16 -7 -16 -16z"/>
<path d="M442 608 c6 -18 28 -21 28 -4 0 9 -7 16 -16 16 -9 0 -14 -5 -12 -12z"/>
</g>
</svg>
