
        <svg xmlns="http://www.w3.org/2000/svg" xmlns:xlink="http://www.w3.org/1999/xlink" version="1.1" width="3168.5393258426966" height="949.9713154814201" viewBox="0 0 3168.5393258426966 949.9713154814201">
			
			<g transform="scale(8.426966292134832) translate(10, 10)">
				<defs id="SvgjsDefs28605"/><g id="SvgjsG28606" featureKey="symbolFeature-0" transform="matrix(1.1678831076176235,0,0,1.1678831076176235,-2.5401476524945426,-12.379561386258858)" fill="#fff"><g xmlns="http://www.w3.org/2000/svg"><circle cx="35.6" cy="28.1" r="1.6"/><circle cx="45.7" cy="28.1" r="1.6"/><path d="M82.8,34.5H53.5c0.5-1.7,0.8-3.6,0.8-5.5c0-8.9-1.1-18.4-13.3-18.4c-6,0-13.2,3.2-13.3,18.4c0,2.1,0.4,4.1,1,6   c-1.7,0.8-2.9,2.5-2.9,4.5v5.9c-4.7,1.8-8.9,5.7-8.9,12.6v4.3h-12c-0.8,0-1.6,0.3-2.1,0.9c-0.5,0.7-0.7,1.5-0.6,2.3L6,86.8   c0.1,0.5,0.2,0.9,0.5,1.3c-0.4,0.1-0.7,0.5-0.7,0.9c0,0.5,0.4,0.9,0.9,1l0,0h0.1h9.1h2h22.5h23.7h9h0.3c0.1,0,0.2,0,0.2-0.1   c1.4-0.3,2.5-1.5,2.5-2.9c0-1.6-1.3-3-3-3h-7.7v-6.1h17.4c2.7,0,5-2.2,5-5V39.5C87.8,36.7,85.5,34.5,82.8,34.5z M33.9,20.4   c-0.7,1-1.6,1.6-2.3,1.6c-0.4,0-0.6-0.1-0.8-0.4c0-0.1-0.1-0.1-0.1-0.1c0.4-1.5,0.9-2.8,1.5-3.9C32.5,18.6,33.1,19.5,33.9,20.4z    M36,19.7c-0.1-0.1-0.2-0.2-0.3-0.3c-1.1-1.2-1.8-2.5-2-3.9c0.4-0.4,0.8-0.8,1.2-1.1c0.6,1.8,1.9,3.4,3.8,4.6c2.1,1.3,4.6,2,7.3,2   c1.8,0,3.7-0.3,5.5-1c0.2,0.6,0.3,1.2,0.4,1.9C47,23.7,41.5,23.4,37.7,21C37,20.6,36.5,20.1,36,19.7z M38.6,12.8   c1.7,3.4,5,4.3,8.2,4.3c1.2,0,2.3-0.2,3.4-0.3c0.2,0.4,0.4,0.8,0.6,1.2c-4,1.4-8.1,1.1-11.2-0.8c-1.6-1.1-2.7-2.5-3-3.9   C37.3,13.2,37.9,13,38.6,12.8z M41.1,12.6c3.4,0,5.9,0.8,7.6,2.3c-4.7,0.4-6.7-0.7-7.7-2.3C41,12.6,41,12.6,41.1,12.6z M29.9,29   c0-1.9,0.1-3.7,0.3-5.2c0.4,0.2,0.9,0.3,1.4,0.3c0.1,0,0.1,0,0.1,0c1.4-0.1,2.7-1,3.7-2.3c0.4,0.3,0.8,0.6,1.3,0.9   c2.6,1.6,5.7,2.4,8.9,2.4c2.2,0,4.5-0.4,6.6-1.1c0.1,1.5,0.2,3.2,0.2,5c0.1,1.9-0.2,3.8-0.8,5.5H30.8c0,0,0,0-0.1,0   C30.2,32.8,29.9,30.9,29.9,29z M4.2,65.2c-0.1-0.3,0-0.5,0.1-0.6c0.1-0.1,0.3-0.2,0.5-0.2h14.6c0.6,0,1.2,0.5,1.3,1.1l3.8,21.3   c0.1,0.3,0,0.5-0.1,0.6c-0.1,0.1-0.3,0.2-0.5,0.2h-7.6l2-11.8v-0.2c0-1.6-1.5-2.9-2.7-2.9h-3.9c-1.2,0-2.6,1.2-2.7,2.8l-1.4,8.8   L4.2,65.2z M14.1,87.6H9.3c-0.1,0-0.1,0-0.2,0l1.8-11.8v-0.2c0-0.4,0.5-0.8,0.6-0.8h3.9c0.2,0.1,0.6,0.4,0.6,0.8L14.1,87.6z    M73.1,86c0.5,0,0.9,0.4,0.9,0.9s-0.4,0.9-0.9,0.9H40.4c-0.5,0-0.9-0.4-0.9-0.9s0.4-0.9,0.9-0.9h7.8h17.2H73.1z M40.4,84   c-1.6,0-3,1.3-3,3c0,0.4,0.1,0.7,0.2,1H26.4c0.2-0.5,0.3-1.1,0.2-1.6l-3.8-21.3c-0.2-1.6-1.7-2.8-3.3-2.8h-0.6V58   c0-6.1,3.8-9,6.9-10.3v25.2c0,2.8,2.3,5,5,5h17.4V84H40.4z M50.3,83.9l0-27.2c0-1.6,1.5-2.9,2.4-2.9h8.2c1,0,2.4,1.3,2.4,2.9v27.2   H50.3z M85.7,72.9c0,1.6-1.3,2.9-2.9,2.9H65.4V56.7c0-2.8-2.5-5-4.5-5h-8.2c-2.1,0-4.5,2.2-4.5,5v19.1H30.8c-1.6,0-2.9-1.3-2.9-2.9   V39.5c0-1.6,1.3-2.9,2.9-2.9h52c1.6,0,2.9,1.3,2.9,2.9V72.9z"/></g></g><g id="SvgjsG28607" featureKey="textGroupContainer" transform="matrix(1,0,0,1,355,2)" fill="#fff"><rect xmlns="http://www.w3.org/2000/svg" y="0" height="1" width="1" opacity="0"/><rect xmlns="http://www.w3.org/2000/svg" y="0" x="-235" width="3" height="90"/></g><g id="SvgjsG28608" featureKey="vMvB0T-0" transform="matrix(1.811594177859843,0,0,1.811594177859843,135.24637429270018,13.76811730663856)" fill="#fff"><path d="M11.32 10.56 q0 0.66 -0.2 1.25 t-0.53 1.06 t-0.78 0.82 t-0.93 0.53 q1.04 0.38 1.54 1.84 l0.6 1.7 q0.34 1 1 1.48 q-0.3 0.4 -0.9 0.67 t-1.32 0.27 t-1.12 -0.41 t-0.74 -1.43 l-0.72 -2.1 q-0.22 -0.6 -0.59 -0.92 t-1.11 -0.32 l-0.82 0 l0 5 q-0.64 0.12 -1.6 0.12 t-1.58 -0.12 l0 -13.56 l0.14 -0.14 q1.74 -0.04 2.93 -0.06 t1.87 -0.02 q1.1 0 2 0.27 t1.53 0.81 t0.98 1.36 t0.35 1.9 z M4.7 8.62 l0 3.92 q0.9 0 1.54 -0.03 t1.03 -0.24 t0.59 -0.59 t0.2 -1.1 q0 -1.94 -1.88 -1.94 l-0.83 0 t-0.65 -0.02 z M17.14 17.14 q-0.54 0 -0.8 -0.02 l-0.86 2.9 q-0.48 0.12 -1.34 0.12 q-0.96 0 -1.56 -0.22 l-0.1 -0.16 l4.4 -13.42 q0.78 -0.12 1.82 -0.12 q1.18 0 1.88 0.14 l4.32 13.44 q-0.7 0.38 -1.58 0.38 q-1.04 0 -1.46 -0.36 t-0.72 -1.38 l-0.38 -1.32 q-0.26 0.02 -0.78 0.02 l-2.84 0 z M17.080000000000002 14.620000000000001 l0.8 -0.02 l1.46 0 q0.1 0 0.35 0.01 t0.37 0.01 l-0.34 -1.24 q-0.48 -1.68 -1.1 -4.12 l-0.12 0 q-0.16 0.86 -0.96 3.82 z M34.08 11.64 l-0.02 -1.48 l0 -3.82 q0.62 -0.12 1.61 -0.12 t1.59 0.12 l0 13.66 q-0.64 0.12 -1.6 0.12 t-1.6 -0.12 l0 -4.24 l0.02 -1.48 l-1 0.02 l-2.32 0 l-1 -0.02 l0.02 1.48 l0 4.24 q-0.62 0.12 -1.6 0.12 t-1.6 -0.12 l0 -13.66 q0.62 -0.12 1.6 -0.12 t1.6 0.12 l0 3.82 l-0.02 1.48 l1 -0.02 l2.32 0 z M50.92 6.34 l0 8.62 q0 2.56 -1.4 3.95 t-4 1.39 t-4.01 -1.39 t-1.41 -3.95 l0 -8.62 l0.14 -0.14 l1.18 0 q1.9 0 1.9 2.04 l0 6.76 q0 1.4 0.5 2.08 t1.7 0.68 t1.7 -0.68 t0.5 -2.08 l0 -8.66 q0.62 -0.12 1.6 -0.12 q0.96 0 1.6 0.12 z M58.82 17.3 l3.46 0 q0 0.8 -0.1 1.37 t-0.64 0.98 t-1.42 0.41 l-4.52 0 q-0.86 0 -1.36 -0.5 t-0.5 -1.36 l0 -11.86 l0.14 -0.14 l1.18 0 q1.88 0 1.88 2.04 l0 9.14 q0.88 -0.08 1.88 -0.08 z M71.92 17.14 q-0.54 0 -0.8 -0.02 l-0.86 2.9 q-0.48 0.12 -1.34 0.12 q-0.96 0 -1.56 -0.22 l-0.1 -0.16 l4.4 -13.42 q0.78 -0.12 1.82 -0.12 q1.18 0 1.88 0.14 l4.32 13.44 q-0.7 0.38 -1.58 0.38 q-1.04 0 -1.46 -0.36 t-0.72 -1.38 l-0.38 -1.32 q-0.26 0.02 -0.78 0.02 l-2.84 0 z M71.86 14.620000000000001 l0.8 -0.02 l1.46 0 q0.1 0 0.35 0.01 t0.37 0.01 l-0.34 -1.24 q-0.48 -1.68 -1.1 -4.12 l-0.12 0 q-0.16 0.86 -0.96 3.82 z M88.86 11.64 l-0.02 -1.48 l0 -3.82 q0.62 -0.12 1.61 -0.12 t1.59 0.12 l0 13.66 q-0.64 0.12 -1.6 0.12 t-1.6 -0.12 l0 -4.24 l0.02 -1.48 l-1 0.02 l-2.32 0 l-1 -0.02 l0.02 1.48 l0 4.24 q-0.62 0.12 -1.6 0.12 t-1.6 -0.12 l0 -13.66 q0.62 -0.12 1.6 -0.12 t1.6 0.12 l0 3.82 l-0.02 1.48 l1 -0.02 l2.32 0 z M95.12 20 l0 -13.66 q0.62 -0.12 1.6 -0.12 t1.62 0.12 l0 13.66 q-0.64 0.12 -1.62 0.12 t-1.6 -0.12 z M111.22 10.56 q0 0.66 -0.2 1.25 t-0.53 1.06 t-0.78 0.82 t-0.93 0.53 q1.04 0.38 1.54 1.84 l0.6 1.7 q0.34 1 1 1.48 q-0.3 0.4 -0.9 0.67 t-1.32 0.27 t-1.12 -0.41 t-0.74 -1.43 l-0.72 -2.1 q-0.22 -0.6 -0.59 -0.92 t-1.11 -0.32 l-0.82 0 l0 5 q-0.64 0.12 -1.6 0.12 t-1.58 -0.12 l0 -13.56 l0.14 -0.14 q1.74 -0.04 2.93 -0.06 t1.87 -0.02 q1.1 0 2 0.27 t1.53 0.81 t0.98 1.36 t0.35 1.9 z M104.60000000000001 8.62 l0 3.92 q0.9 0 1.54 -0.03 t1.03 -0.24 t0.59 -0.59 t0.2 -1.1 q0 -1.94 -1.88 -1.94 l-0.83 0 t-0.65 -0.02 z"/></g><g id="SvgjsG28609" featureKey="sloganFeature-0" transform="matrix(0.5819620707001865,0,0,0.5819620707001865,137.42967688211263,57.93888020741989)" fill="#fff"><path d="M12 9.84 l-1.82 0 c-0.1 -2.22 -1.94 -2.92 -3.56 -2.92 c-1.22 0 -3.28 0.34 -3.28 2.52 c0 1.22 0.86 1.62 1.7 1.82 l4.1 0.94 c1.86 0.44 3.26 1.56 3.26 3.84 c0 3.4 -3.16 4.34 -5.62 4.34 c-2.66 0 -3.7 -0.8 -4.34 -1.38 c-1.22 -1.1 -1.46 -2.3 -1.46 -3.64 l1.82 0 c0 2.6 2.12 3.36 3.96 3.36 c1.4 0 3.76 -0.36 3.76 -2.42 c0 -1.5 -0.7 -1.98 -3.06 -2.54 l-2.94 -0.68 c-0.94 -0.22 -3.06 -0.88 -3.06 -3.38 c0 -2.24 1.46 -4.44 4.94 -4.44 c5.02 0 5.52 3 5.6 4.58 z M29.451999999999998 12.82 c0 -3.38 -1.88 -5.84 -5 -5.84 s-5 2.46 -5 5.84 s1.88 5.84 5 5.84 s5 -2.46 5 -5.84 z M31.451999999999998 12.82 c0 3.1 -1.64 7.56 -7 7.56 s-7 -4.46 -7 -7.56 s1.64 -7.56 7 -7.56 s7 4.46 7 7.56 z M39.224000000000004 13.48 l0 6.52 l-1.94 0 l0 -14.36 l9.94 0 l0 1.72 l-8 0 l0 4.4 l7.04 0 l0 1.72 l-7.04 0 z M51.39600000000001 7.359999999999999 l0 -1.72 l11.66 0 l0 1.72 l-4.86 0 l0 12.64 l-1.94 0 l0 -12.64 l-4.86 0 z M76.08800000000001 8.1 l-3.32 11.9 l-2.04 0 l-3.74 -14.36 l2.1 0 l2.68 11.68 l0.04 0 l3.22 -11.68 l2.12 0 l3.22 11.68 l0.04 0 l2.68 -11.68 l2.14 0 l-3.78 14.36 l-2.04 0 l-3.28 -11.9 l-0.04 0 z M98.42000000000002 15.82 l-5.76 0 l-1.5 4.18 l-2 0 l5.4 -14.36 l2.2 0 l5.2 14.36 l-2.12 0 z M93.26 14.1 l4.46 0 l-2.12 -6.32 l-0.04 0 z M109.25200000000001 13.84 l0 6.16 l-1.94 0 l0 -14.36 l6.64 0 c2.36 0 4.72 0.82 4.72 3.86 c0 2.12 -1.08 2.9 -2 3.44 c0.82 0.34 1.64 0.7 1.72 2.7 l0.12 2.6 c0.02 0.8 0.12 1.1 0.72 1.44 l0 0.32 l-2.38 0 c-0.28 -0.88 -0.34 -3.06 -0.34 -3.6 c0 -1.18 -0.24 -2.56 -2.56 -2.56 l-4.7 0 z M109.25200000000001 7.300000000000001 l0 4.88 l4.5 0 c1.42 0 2.92 -0.36 2.92 -2.48 c0 -2.22 -1.62 -2.4 -2.58 -2.4 l-4.84 0 z M135.644 18.28 l0 1.72 l-10.6 0 l0 -14.36 l10.46 0 l0 1.72 l-8.52 0 l0 4.4 l7.86 0 l0 1.72 l-7.86 0 l0 4.8 l8.66 0 z M161.208 18.28 l0 1.72 l-10.6 0 l0 -14.36 l10.46 0 l0 1.72 l-8.52 0 l0 4.4 l7.86 0 l0 1.72 l-7.86 0 l0 4.8 l8.66 0 z M176.6 17.240000000000002 l0 -11.6 l1.88 0 l0 14.36 l-2.18 0 l-7.3 -11.6 l-0.04 0 l0 11.6 l-1.88 0 l0 -14.36 l2.3 0 l7.18 11.6 l0.04 0 z M191.112 13.98 l0 -1.66 l6.3 0 l0 7.68 l-1.26 0 l-0.46 -1.86 c-0.98 1.36 -2.78 2.24 -4.74 2.24 c-2.46 0 -3.66 -0.9 -4.4 -1.62 c-2.2 -2.08 -2.26 -4.54 -2.26 -6.06 c0 -3.5 2.12 -7.44 6.8 -7.44 c2.68 0 5.66 1.52 6.08 4.74 l-1.88 0 c-0.62 -2.5 -2.72 -3.02 -4.3 -3.02 c-2.58 0 -4.7 2.06 -4.7 5.82 c0 2.92 0.96 5.92 4.78 5.92 c0.72 0 1.88 -0.08 2.94 -0.92 c1.26 -1 1.58 -2.28 1.58 -3.82 l-4.48 0 z M205.98399999999998 5.640000000000001 l0 14.36 l-1.94 0 l0 -14.36 l1.94 0 z M222.15599999999998 17.240000000000002 l0 -11.6 l1.88 0 l0 14.36 l-2.18 0 l-7.3 -11.6 l-0.04 0 l0 11.6 l-1.88 0 l0 -14.36 l2.3 0 l7.18 11.6 l0.04 0 z M241.20799999999997 18.28 l0 1.72 l-10.6 0 l0 -14.36 l10.46 0 l0 1.72 l-8.52 0 l0 4.4 l7.86 0 l0 1.72 l-7.86 0 l0 4.8 l8.66 0 z M257.88 18.28 l0 1.72 l-10.6 0 l0 -14.36 l10.46 0 l0 1.72 l-8.52 0 l0 4.4 l7.86 0 l0 1.72 l-7.86 0 l0 4.8 l8.66 0 z M265.93199999999996 13.84 l0 6.16 l-1.94 0 l0 -14.36 l6.64 0 c2.36 0 4.72 0.82 4.72 3.86 c0 2.12 -1.08 2.9 -2 3.44 c0.82 0.34 1.64 0.7 1.72 2.7 l0.12 2.6 c0.02 0.8 0.12 1.1 0.72 1.44 l0 0.32 l-2.38 0 c-0.28 -0.88 -0.34 -3.06 -0.34 -3.6 c0 -1.18 -0.24 -2.56 -2.56 -2.56 l-4.7 0 z M265.93199999999996 7.300000000000001 l0 4.88 l4.5 0 c1.42 0 2.92 -0.36 2.92 -2.48 c0 -2.22 -1.62 -2.4 -2.58 -2.4 l-4.84 0 z"/></g>
			</g>
		</svg>
	